<svg aria-hidden="true" style="position: absolute; width: 0; height: 0; overflow: hidden;" version="1.1" xmlns="http://www.w3.org/2000/svg" xmlns:xlink="http://www.w3.org/1999/xlink">
<defs>
<symbol id="icon-header-btn" viewBox="0 0 117 32">
<path fill="#ed3b44" style="fill: var(--color1, #ed3b44)" d="M16 0h84.622c8.837 0 16 7.163 16 16s-7.163 16-16 16h-84.622c-8.837 0-16-7.163-16-16s7.163-16 16-16z"></path>
<path fill="#fafafa" style="fill: var(--color2, #fafafa)" d="M26.017 20.008c-0.622 0-1.18-0.149-1.672-0.447s-0.881-0.724-1.167-1.278c-0.285-0.557-0.428-1.22-0.428-1.988 0-0.775 0.143-1.439 0.428-1.993 0.285-0.557 0.674-0.985 1.167-1.283s1.050-0.447 1.672-0.447c0.629 0 1.188 0.149 1.677 0.447s0.875 0.726 1.157 1.283c0.285 0.554 0.428 1.219 0.428 1.993 0 0.771-0.143 1.434-0.428 1.988-0.282 0.554-0.668 0.98-1.157 1.278s-1.048 0.447-1.677 0.447zM26.017 19.012c0.418 0 0.791-0.104 1.118-0.311s0.585-0.514 0.773-0.919c0.191-0.405 0.287-0.901 0.287-1.488 0-0.59-0.096-1.087-0.287-1.492-0.188-0.408-0.446-0.716-0.773-0.924s-0.7-0.311-1.118-0.311c-0.415 0-0.788 0.104-1.118 0.311-0.327 0.207-0.587 0.515-0.778 0.924-0.191 0.405-0.287 0.903-0.287 1.492 0 0.587 0.096 1.082 0.287 1.488s0.451 0.711 0.778 0.919c0.331 0.207 0.703 0.311 1.118 0.311zM29.94 19.911v-5.435h1.016v0.87h0.058c0.1-0.292 0.275-0.522 0.525-0.69 0.253-0.172 0.538-0.258 0.856-0.258 0.065 0 0.141 0.003 0.228 0.010 0.091 0.003 0.164 0.008 0.219 0.015v1.011c-0.042-0.013-0.118-0.026-0.228-0.039-0.107-0.013-0.216-0.019-0.326-0.019-0.25 0-0.473 0.053-0.671 0.16-0.194 0.104-0.348 0.248-0.462 0.433-0.11 0.181-0.165 0.392-0.165 0.632v3.31h-1.050zM34.981 20.018c-0.441 0-0.833-0.112-1.176-0.335-0.344-0.227-0.613-0.549-0.807-0.967-0.194-0.421-0.292-0.924-0.292-1.507 0-0.59 0.099-1.094 0.297-1.512s0.468-0.737 0.812-0.958c0.344-0.22 0.732-0.331 1.167-0.331 0.34 0 0.612 0.057 0.817 0.17 0.207 0.11 0.368 0.24 0.481 0.389 0.117 0.149 0.206 0.28 0.267 0.394h0.063v-2.693h1.050v7.243h-1.026v-0.846h-0.088c-0.062 0.113-0.152 0.245-0.272 0.394s-0.284 0.28-0.491 0.394c-0.204 0.11-0.472 0.165-0.802 0.165zM35.209 19.119c0.305 0 0.562-0.081 0.773-0.243s0.369-0.387 0.476-0.676c0.11-0.288 0.165-0.622 0.165-1.001s-0.053-0.71-0.16-0.992c-0.107-0.285-0.266-0.506-0.476-0.661-0.211-0.159-0.47-0.238-0.778-0.238-0.318 0-0.582 0.083-0.792 0.248s-0.369 0.391-0.476 0.676c-0.107 0.285-0.16 0.608-0.16 0.967 0 0.363 0.053 0.69 0.16 0.982 0.107 0.288 0.266 0.517 0.476 0.685 0.214 0.169 0.478 0.253 0.792 0.253zM40.815 20.023c-0.532 0-0.992-0.115-1.381-0.345s-0.689-0.554-0.899-0.972c-0.207-0.421-0.311-0.912-0.311-1.473 0-0.557 0.102-1.048 0.306-1.473 0.207-0.425 0.497-0.755 0.87-0.992 0.376-0.24 0.817-0.36 1.322-0.36 0.308 0 0.606 0.050 0.894 0.151s0.548 0.259 0.778 0.476c0.23 0.217 0.412 0.499 0.544 0.846 0.136 0.347 0.204 0.765 0.204 1.254v0.379h-4.322v-0.792h3.777l-0.491 0.263c0-0.334-0.052-0.629-0.156-0.885s-0.259-0.455-0.467-0.598c-0.204-0.146-0.459-0.219-0.763-0.219s-0.566 0.073-0.783 0.219c-0.214 0.146-0.378 0.339-0.491 0.579s-0.17 0.502-0.17 0.788v0.54c0 0.373 0.065 0.689 0.194 0.948s0.31 0.457 0.54 0.593c0.233 0.136 0.504 0.204 0.812 0.204 0.201 0 0.382-0.029 0.544-0.088 0.165-0.058 0.308-0.146 0.428-0.262s0.211-0.261 0.272-0.433l1.001 0.19c-0.081 0.292-0.224 0.548-0.428 0.768s-0.462 0.392-0.773 0.515c-0.308 0.12-0.66 0.18-1.055 0.18zM43.683 19.911v-5.435h1.016v0.87h0.058c0.1-0.292 0.275-0.522 0.525-0.69 0.253-0.172 0.538-0.258 0.856-0.258 0.065 0 0.141 0.003 0.228 0.010 0.091 0.003 0.164 0.008 0.219 0.015v1.011c-0.042-0.013-0.118-0.026-0.228-0.039-0.107-0.013-0.216-0.019-0.326-0.019-0.25 0-0.473 0.053-0.671 0.16-0.194 0.104-0.348 0.248-0.462 0.433-0.11 0.181-0.165 0.392-0.165 0.632v3.31h-1.050zM51.441 14.476v0.851h-2.965v-0.851h2.965zM49.269 13.183h1.055v5.133c0 0.25 0.052 0.433 0.156 0.549 0.104 0.113 0.271 0.17 0.501 0.17 0.055 0 0.113-0.003 0.175-0.010 0.065-0.007 0.13-0.016 0.194-0.029l0.199 0.875c-0.107 0.036-0.224 0.063-0.35 0.083s-0.253 0.029-0.379 0.029c-0.47 0-0.846-0.131-1.128-0.394-0.282-0.266-0.423-0.619-0.423-1.060v-5.347zM53.167 16.688v3.223h-1.050v-7.243h1.035v2.703h0.073c0.126-0.295 0.319-0.528 0.578-0.7 0.262-0.175 0.604-0.263 1.026-0.263 0.373 0 0.698 0.076 0.977 0.228s0.496 0.381 0.651 0.685c0.159 0.305 0.238 0.684 0.238 1.138v3.451h-1.060v-3.325c0-0.402-0.104-0.713-0.311-0.933-0.204-0.22-0.489-0.331-0.856-0.331-0.253 0-0.476 0.055-0.671 0.165-0.194 0.107-0.348 0.261-0.462 0.462s-0.17 0.447-0.17 0.739zM59.847 20.023c-0.532 0-0.992-0.115-1.381-0.345s-0.689-0.554-0.899-0.972c-0.207-0.421-0.311-0.912-0.311-1.473 0-0.557 0.102-1.048 0.306-1.473 0.207-0.425 0.498-0.755 0.87-0.992 0.376-0.24 0.817-0.36 1.322-0.36 0.308 0 0.606 0.050 0.894 0.151s0.548 0.259 0.778 0.476c0.23 0.217 0.412 0.499 0.544 0.846 0.136 0.347 0.204 0.765 0.204 1.254v0.379h-4.322v-0.792h3.777l-0.491 0.263c0-0.334-0.052-0.629-0.156-0.885s-0.259-0.455-0.467-0.598c-0.204-0.146-0.459-0.219-0.763-0.219s-0.565 0.073-0.783 0.219c-0.214 0.146-0.378 0.339-0.491 0.579s-0.17 0.502-0.17 0.788v0.54c0 0.373 0.065 0.689 0.194 0.948s0.309 0.457 0.54 0.593c0.233 0.136 0.504 0.204 0.812 0.204 0.201 0 0.382-0.029 0.544-0.088 0.165-0.058 0.308-0.146 0.428-0.262s0.211-0.261 0.272-0.433l1.001 0.19c-0.081 0.292-0.224 0.548-0.428 0.768s-0.462 0.392-0.773 0.515c-0.308 0.12-0.66 0.18-1.055 0.18zM64.733 21.943v-7.467h1.021v0.885h0.088c0.065-0.113 0.154-0.245 0.267-0.394 0.117-0.149 0.279-0.279 0.486-0.389 0.207-0.113 0.478-0.17 0.812-0.17 0.438 0 0.826 0.11 1.167 0.331 0.343 0.22 0.614 0.54 0.812 0.958s0.297 0.922 0.297 1.512c0 0.583-0.097 1.086-0.292 1.507-0.194 0.418-0.463 0.74-0.807 0.967-0.34 0.224-0.731 0.335-1.171 0.335-0.327 0-0.596-0.055-0.807-0.165-0.207-0.113-0.371-0.245-0.491-0.394-0.117-0.149-0.207-0.28-0.272-0.394h-0.058v2.878h-1.050zM67.183 19.119c0.314 0 0.577-0.084 0.787-0.253s0.369-0.397 0.476-0.685c0.11-0.292 0.165-0.619 0.165-0.982 0-0.36-0.053-0.682-0.16-0.967s-0.266-0.51-0.476-0.676c-0.211-0.165-0.475-0.248-0.792-0.248-0.308 0-0.567 0.079-0.778 0.238-0.211 0.156-0.371 0.376-0.481 0.661-0.107 0.282-0.16 0.612-0.16 0.992s0.055 0.713 0.165 1.001c0.11 0.288 0.271 0.514 0.481 0.676 0.214 0.162 0.472 0.243 0.773 0.243zM70.25 19.911v-5.435h1.016v0.87h0.058c0.1-0.292 0.275-0.522 0.525-0.69 0.253-0.172 0.538-0.258 0.855-0.258 0.065 0 0.141 0.003 0.229 0.010 0.090 0.003 0.164 0.008 0.218 0.015v1.011c-0.042-0.013-0.118-0.026-0.228-0.039-0.107-0.013-0.215-0.019-0.326-0.019-0.25 0-0.473 0.053-0.671 0.16-0.195 0.104-0.348 0.248-0.462 0.433-0.11 0.181-0.165 0.392-0.165 0.632v3.31h-1.050zM75.549 20.023c-0.509 0-0.955-0.117-1.337-0.35-0.38-0.233-0.674-0.561-0.885-0.982-0.208-0.421-0.311-0.911-0.311-1.468 0-0.564 0.104-1.056 0.311-1.478 0.21-0.425 0.505-0.754 0.885-0.987 0.382-0.233 0.828-0.35 1.337-0.35 0.512 0 0.957 0.117 1.336 0.35s0.674 0.562 0.885 0.987c0.21 0.421 0.316 0.914 0.316 1.478 0 0.557-0.105 1.047-0.316 1.468s-0.506 0.749-0.885 0.982c-0.379 0.233-0.824 0.35-1.336 0.35zM75.549 19.133c0.334 0 0.609-0.087 0.826-0.262s0.378-0.407 0.481-0.695c0.107-0.292 0.161-0.609 0.161-0.953 0-0.35-0.053-0.671-0.161-0.962-0.103-0.292-0.264-0.525-0.481-0.7s-0.493-0.262-0.826-0.262c-0.331 0-0.604 0.087-0.822 0.262-0.213 0.175-0.374 0.408-0.481 0.7s-0.161 0.612-0.161 0.962c0 0.344 0.053 0.661 0.161 0.953 0.107 0.288 0.267 0.52 0.481 0.695 0.218 0.175 0.491 0.262 0.822 0.262zM78.65 14.476h1.050v5.79c0.003 0.363-0.062 0.669-0.195 0.919s-0.327 0.437-0.583 0.564c-0.256 0.13-0.57 0.194-0.943 0.194h-0.214v-0.909h0.17c0.253 0 0.434-0.066 0.545-0.199s0.167-0.324 0.17-0.574v-5.785zM79.171 13.64c-0.185 0-0.342-0.062-0.471-0.185s-0.195-0.271-0.195-0.442c0-0.175 0.065-0.324 0.195-0.447s0.287-0.185 0.471-0.185c0.181 0 0.337 0.062 0.466 0.185 0.133 0.123 0.199 0.272 0.199 0.447 0 0.172-0.066 0.319-0.199 0.442-0.129 0.123-0.285 0.185-0.466 0.185zM82.851 20.023c-0.532 0-0.992-0.115-1.381-0.345s-0.688-0.554-0.899-0.972c-0.208-0.421-0.311-0.912-0.311-1.473 0-0.557 0.102-1.048 0.306-1.473 0.207-0.425 0.497-0.755 0.87-0.992 0.376-0.24 0.817-0.36 1.323-0.36 0.308 0 0.606 0.050 0.895 0.151s0.548 0.259 0.777 0.476c0.23 0.217 0.412 0.499 0.545 0.846 0.136 0.347 0.204 0.765 0.204 1.254v0.379h-4.321v-0.792h3.777l-0.491 0.263c0-0.334-0.052-0.629-0.156-0.885s-0.259-0.455-0.466-0.598c-0.204-0.146-0.459-0.219-0.763-0.219s-0.565 0.073-0.783 0.219c-0.214 0.146-0.378 0.339-0.491 0.579s-0.17 0.502-0.17 0.788v0.54c0 0.373 0.065 0.689 0.194 0.948s0.309 0.457 0.54 0.593c0.233 0.136 0.503 0.204 0.811 0.204 0.201 0 0.383-0.029 0.545-0.088 0.165-0.058 0.308-0.146 0.428-0.262s0.21-0.261 0.272-0.433l1.002 0.19c-0.081 0.292-0.224 0.548-0.428 0.768s-0.462 0.392-0.773 0.515c-0.308 0.12-0.659 0.18-1.055 0.18zM87.999 20.023c-0.521 0-0.972-0.12-1.351-0.36s-0.671-0.57-0.875-0.992c-0.204-0.421-0.306-0.904-0.306-1.449 0-0.554 0.104-1.042 0.311-1.463 0.21-0.425 0.504-0.755 0.88-0.992 0.379-0.24 0.823-0.36 1.332-0.36 0.415 0 0.782 0.076 1.103 0.228 0.324 0.149 0.585 0.361 0.783 0.637 0.201 0.275 0.319 0.596 0.355 0.962h-1.030c-0.036-0.172-0.105-0.329-0.209-0.472-0.1-0.143-0.233-0.256-0.399-0.34s-0.361-0.126-0.588-0.126c-0.295 0-0.553 0.078-0.773 0.233-0.217 0.152-0.387 0.371-0.511 0.656s-0.184 0.622-0.184 1.011c0 0.392 0.060 0.734 0.18 1.026s0.289 0.517 0.51 0.676c0.224 0.156 0.483 0.233 0.778 0.233 0.304 0 0.564-0.084 0.778-0.253 0.217-0.169 0.356-0.399 0.418-0.69h1.030c-0.036 0.353-0.149 0.668-0.341 0.943s-0.447 0.493-0.768 0.651c-0.321 0.159-0.695 0.238-1.123 0.238zM93.307 14.476v0.851h-2.965v-0.851h2.965zM91.135 13.183h1.055v5.133c0 0.25 0.052 0.433 0.156 0.549 0.104 0.113 0.27 0.17 0.501 0.17 0.055 0 0.113-0.003 0.175-0.010 0.065-0.007 0.129-0.016 0.194-0.029l0.2 0.875c-0.107 0.036-0.224 0.063-0.35 0.083s-0.253 0.029-0.38 0.029c-0.469 0-0.846-0.131-1.128-0.394-0.282-0.266-0.422-0.619-0.422-1.060v-5.347z"></path>
</symbol>
<symbol id="icon-menu-btn" viewBox="0 0 95 32">
<path fill="#ed3b44" style="fill: var(--color1, #ed3b44)" d="M16 0h62.836c8.837 0 16 7.163 16 16s-7.163 16-16 16h-62.836c-8.837 0-16-7.163-16-16s7.163-16 16-16z"></path>
<path fill="#fafafa" style="fill: var(--color2, #fafafa)" d="M17.345 19.291c-0.582 0-1.103-0.139-1.564-0.418s-0.824-0.677-1.091-1.195c-0.267-0.521-0.4-1.141-0.4-1.859 0-0.724 0.133-1.345 0.4-1.864 0.267-0.521 0.63-0.921 1.091-1.2s0.982-0.418 1.564-0.418c0.588 0 1.111 0.139 1.568 0.418s0.818 0.679 1.082 1.2c0.267 0.518 0.4 1.139 0.4 1.864 0 0.721-0.133 1.341-0.4 1.859-0.264 0.518-0.624 0.917-1.082 1.195s-0.98 0.418-1.568 0.418zM17.345 18.359c0.391 0 0.739-0.097 1.045-0.291s0.547-0.48 0.723-0.859c0.179-0.379 0.268-0.842 0.268-1.391 0-0.552-0.089-1.017-0.268-1.395-0.176-0.382-0.417-0.67-0.723-0.864s-0.655-0.291-1.045-0.291c-0.388 0-0.736 0.097-1.045 0.291-0.306 0.194-0.548 0.482-0.727 0.864-0.179 0.379-0.268 0.844-0.268 1.395 0 0.548 0.089 1.012 0.268 1.391s0.421 0.665 0.727 0.859c0.309 0.194 0.658 0.291 1.045 0.291zM21.014 19.2v-5.082h0.95v0.814h0.055c0.094-0.273 0.258-0.488 0.491-0.645 0.236-0.161 0.503-0.241 0.8-0.241 0.061 0 0.132 0.003 0.214 0.009 0.085 0.003 0.153 0.008 0.205 0.014v0.945c-0.039-0.012-0.111-0.024-0.214-0.036-0.1-0.012-0.202-0.018-0.305-0.018-0.233 0-0.442 0.050-0.627 0.15-0.182 0.097-0.326 0.232-0.432 0.405-0.103 0.17-0.155 0.367-0.155 0.591v3.095h-0.982zM25.728 19.3c-0.412 0-0.779-0.105-1.1-0.314-0.321-0.212-0.573-0.514-0.755-0.905-0.182-0.394-0.273-0.864-0.273-1.409 0-0.552 0.092-1.023 0.277-1.414s0.438-0.689 0.759-0.895 0.685-0.309 1.091-0.309c0.318 0 0.573 0.053 0.764 0.159 0.194 0.103 0.344 0.224 0.45 0.364 0.109 0.139 0.192 0.262 0.25 0.368h0.059v-2.518h0.982v6.773h-0.959v-0.791h-0.082c-0.058 0.106-0.142 0.229-0.255 0.368s-0.265 0.262-0.459 0.368c-0.191 0.103-0.441 0.155-0.75 0.155zM25.941 18.459c0.285 0 0.526-0.076 0.723-0.227s0.345-0.362 0.445-0.632c0.103-0.27 0.155-0.582 0.155-0.936s-0.050-0.664-0.15-0.927c-0.1-0.267-0.248-0.473-0.445-0.618-0.197-0.148-0.439-0.223-0.727-0.223-0.297 0-0.544 0.077-0.741 0.232s-0.345 0.365-0.445 0.632c-0.1 0.267-0.15 0.568-0.15 0.905 0 0.339 0.050 0.645 0.15 0.918 0.1 0.27 0.248 0.483 0.445 0.641 0.2 0.158 0.447 0.236 0.741 0.236zM31.182 19.305c-0.497 0-0.927-0.108-1.291-0.323s-0.644-0.518-0.841-0.909c-0.194-0.394-0.291-0.853-0.291-1.377 0-0.521 0.095-0.98 0.286-1.377 0.194-0.397 0.465-0.706 0.814-0.927 0.351-0.224 0.764-0.336 1.236-0.336 0.288 0 0.567 0.047 0.836 0.141s0.512 0.242 0.727 0.445c0.215 0.203 0.385 0.467 0.509 0.791 0.127 0.324 0.191 0.715 0.191 1.173v0.355h-4.041v-0.741h3.532l-0.459 0.245c0-0.312-0.048-0.588-0.145-0.827s-0.242-0.426-0.436-0.559c-0.191-0.136-0.429-0.205-0.714-0.205s-0.529 0.068-0.732 0.205c-0.2 0.136-0.353 0.317-0.459 0.541s-0.159 0.47-0.159 0.736v0.505c0 0.348 0.061 0.644 0.182 0.886s0.289 0.427 0.505 0.555c0.218 0.127 0.471 0.191 0.759 0.191 0.188 0 0.358-0.027 0.509-0.082 0.155-0.055 0.288-0.136 0.4-0.245s0.197-0.244 0.255-0.405l0.936 0.177c-0.076 0.273-0.209 0.512-0.4 0.718s-0.432 0.367-0.723 0.482c-0.288 0.112-0.617 0.168-0.986 0.168zM33.864 19.2v-5.082h0.95v0.814h0.055c0.094-0.273 0.258-0.488 0.491-0.645 0.236-0.161 0.503-0.241 0.8-0.241 0.061 0 0.132 0.003 0.214 0.009 0.085 0.003 0.153 0.008 0.205 0.014v0.945c-0.039-0.012-0.111-0.024-0.214-0.036-0.1-0.012-0.202-0.018-0.305-0.018-0.233 0-0.442 0.050-0.627 0.15-0.182 0.097-0.326 0.232-0.432 0.405-0.103 0.17-0.155 0.367-0.155 0.591v3.095h-0.982zM41.119 14.118v0.795h-2.773v-0.795h2.773zM39.087 12.909h0.986v4.8c0 0.233 0.048 0.405 0.145 0.514 0.097 0.106 0.253 0.159 0.468 0.159 0.051 0 0.106-0.003 0.164-0.009 0.061-0.006 0.121-0.015 0.182-0.027l0.186 0.818c-0.1 0.033-0.209 0.059-0.327 0.077s-0.236 0.027-0.355 0.027c-0.439 0-0.791-0.123-1.055-0.368-0.264-0.248-0.395-0.579-0.395-0.991v-5zM42.733 16.186v3.014h-0.982v-6.773h0.968v2.527h0.068c0.118-0.276 0.299-0.494 0.541-0.655 0.245-0.164 0.565-0.245 0.959-0.245 0.348 0 0.653 0.071 0.914 0.214s0.464 0.356 0.609 0.641c0.148 0.285 0.223 0.639 0.223 1.064v3.227h-0.991v-3.109c0-0.376-0.097-0.667-0.291-0.873-0.191-0.206-0.458-0.309-0.8-0.309-0.236 0-0.445 0.052-0.627 0.155-0.182 0.1-0.326 0.244-0.432 0.432s-0.159 0.418-0.159 0.691zM48.979 19.305c-0.497 0-0.927-0.108-1.291-0.323s-0.644-0.518-0.841-0.909c-0.194-0.394-0.291-0.853-0.291-1.377 0-0.521 0.095-0.98 0.286-1.377 0.194-0.397 0.465-0.706 0.814-0.927 0.352-0.224 0.764-0.336 1.236-0.336 0.288 0 0.567 0.047 0.836 0.141s0.512 0.242 0.727 0.445c0.215 0.203 0.385 0.467 0.509 0.791 0.127 0.324 0.191 0.715 0.191 1.173v0.355h-4.041v-0.741h3.532l-0.459 0.245c0-0.312-0.048-0.588-0.145-0.827s-0.242-0.426-0.436-0.559c-0.191-0.136-0.429-0.205-0.714-0.205s-0.529 0.068-0.732 0.205c-0.2 0.136-0.353 0.317-0.459 0.541s-0.159 0.47-0.159 0.736v0.505c0 0.348 0.061 0.644 0.182 0.886s0.289 0.427 0.505 0.555c0.218 0.127 0.471 0.191 0.759 0.191 0.188 0 0.358-0.027 0.509-0.082 0.155-0.055 0.288-0.136 0.4-0.245s0.197-0.244 0.255-0.405l0.936 0.177c-0.076 0.273-0.209 0.512-0.4 0.718s-0.432 0.367-0.723 0.482c-0.288 0.112-0.617 0.168-0.986 0.168zM53.547 21.1v-6.982h0.955v0.827h0.082c0.061-0.106 0.144-0.229 0.25-0.368 0.109-0.139 0.261-0.261 0.455-0.364 0.194-0.106 0.447-0.159 0.759-0.159 0.409 0 0.773 0.103 1.091 0.309 0.321 0.206 0.574 0.505 0.759 0.895s0.277 0.862 0.277 1.414c0 0.546-0.091 1.015-0.273 1.409-0.182 0.391-0.433 0.692-0.755 0.905-0.318 0.209-0.683 0.314-1.095 0.314-0.306 0-0.558-0.052-0.755-0.155-0.194-0.106-0.347-0.229-0.459-0.368-0.109-0.139-0.194-0.262-0.255-0.368h-0.055v2.691h-0.982zM55.838 18.459c0.294 0 0.539-0.079 0.736-0.236s0.345-0.371 0.445-0.641c0.103-0.273 0.155-0.579 0.155-0.918 0-0.336-0.050-0.638-0.15-0.905s-0.248-0.477-0.445-0.632c-0.197-0.155-0.444-0.232-0.741-0.232-0.288 0-0.53 0.074-0.727 0.223-0.197 0.145-0.347 0.351-0.45 0.618-0.1 0.264-0.15 0.573-0.15 0.927s0.052 0.667 0.155 0.936c0.103 0.27 0.253 0.48 0.45 0.632 0.2 0.152 0.441 0.227 0.723 0.227zM58.707 19.2v-5.082h0.95v0.814h0.054c0.094-0.273 0.258-0.488 0.491-0.645 0.236-0.161 0.503-0.241 0.8-0.241 0.060 0 0.132 0.003 0.214 0.009 0.085 0.003 0.153 0.008 0.205 0.014v0.945c-0.040-0.012-0.111-0.024-0.214-0.036-0.1-0.012-0.202-0.018-0.305-0.018-0.233 0-0.442 0.050-0.627 0.15-0.182 0.097-0.326 0.232-0.432 0.405-0.103 0.17-0.155 0.367-0.155 0.591v3.095h-0.982zM63.661 19.305c-0.476 0-0.892-0.109-1.25-0.327-0.354-0.218-0.63-0.524-0.827-0.918-0.194-0.394-0.291-0.852-0.291-1.373 0-0.527 0.097-0.988 0.291-1.382 0.197-0.397 0.472-0.705 0.827-0.923 0.358-0.218 0.774-0.327 1.25-0.327 0.479 0 0.895 0.109 1.25 0.327s0.631 0.526 0.827 0.923c0.197 0.394 0.296 0.855 0.296 1.382 0 0.521-0.098 0.979-0.296 1.373s-0.472 0.7-0.827 0.918c-0.354 0.218-0.771 0.327-1.25 0.327zM63.661 18.473c0.312 0 0.57-0.082 0.773-0.245s0.353-0.38 0.45-0.65c0.1-0.273 0.15-0.57 0.15-0.891 0-0.327-0.050-0.627-0.15-0.9-0.097-0.273-0.247-0.491-0.45-0.655s-0.461-0.245-0.773-0.245c-0.309 0-0.566 0.082-0.768 0.245-0.2 0.164-0.35 0.382-0.45 0.655s-0.15 0.573-0.15 0.9c0 0.321 0.050 0.618 0.15 0.891 0.1 0.27 0.25 0.486 0.45 0.65 0.202 0.164 0.459 0.245 0.768 0.245zM66.561 14.118h0.982v5.414c0.003 0.339-0.058 0.626-0.182 0.859s-0.306 0.409-0.545 0.527c-0.239 0.121-0.534 0.182-0.882 0.182h-0.2v-0.85h0.159c0.236 0 0.406-0.062 0.509-0.186s0.156-0.303 0.159-0.536v-5.409zM67.048 13.336c-0.172 0-0.319-0.058-0.44-0.173s-0.182-0.253-0.182-0.414c0-0.164 0.061-0.303 0.182-0.418s0.268-0.173 0.44-0.173c0.17 0 0.315 0.058 0.436 0.173 0.124 0.115 0.187 0.255 0.187 0.418 0 0.161-0.062 0.298-0.187 0.414-0.121 0.115-0.266 0.173-0.436 0.173zM70.489 19.305c-0.497 0-0.927-0.108-1.291-0.323s-0.644-0.518-0.841-0.909c-0.194-0.394-0.291-0.853-0.291-1.377 0-0.521 0.095-0.98 0.286-1.377 0.194-0.397 0.465-0.706 0.813-0.927 0.352-0.224 0.764-0.336 1.236-0.336 0.288 0 0.567 0.047 0.837 0.141s0.512 0.242 0.727 0.445c0.215 0.203 0.385 0.467 0.509 0.791 0.127 0.324 0.191 0.715 0.191 1.173v0.355h-4.041v-0.741h3.532l-0.459 0.245c0-0.312-0.048-0.588-0.145-0.827s-0.243-0.426-0.436-0.559c-0.191-0.136-0.429-0.205-0.714-0.205s-0.528 0.068-0.731 0.205c-0.2 0.136-0.353 0.317-0.46 0.541s-0.159 0.47-0.159 0.736v0.505c0 0.348 0.061 0.644 0.182 0.886s0.289 0.427 0.504 0.555c0.218 0.127 0.471 0.191 0.759 0.191 0.188 0 0.358-0.027 0.509-0.082 0.155-0.055 0.288-0.136 0.4-0.245s0.197-0.244 0.254-0.405l0.937 0.177c-0.076 0.273-0.209 0.512-0.4 0.718s-0.432 0.367-0.723 0.482c-0.288 0.112-0.617 0.168-0.986 0.168zM75.303 19.305c-0.488 0-0.909-0.112-1.264-0.336s-0.627-0.533-0.819-0.927c-0.191-0.394-0.286-0.845-0.286-1.355 0-0.518 0.097-0.974 0.291-1.368 0.197-0.397 0.471-0.706 0.823-0.927 0.355-0.224 0.77-0.336 1.246-0.336 0.388 0 0.732 0.071 1.032 0.214 0.303 0.139 0.547 0.338 0.732 0.595 0.188 0.258 0.298 0.558 0.332 0.9h-0.963c-0.033-0.161-0.098-0.308-0.195-0.441-0.094-0.133-0.218-0.239-0.372-0.318s-0.338-0.118-0.55-0.118c-0.276 0-0.517 0.073-0.723 0.218-0.203 0.142-0.362 0.347-0.477 0.614s-0.173 0.582-0.173 0.945c0 0.367 0.056 0.686 0.168 0.959s0.271 0.483 0.477 0.632c0.209 0.145 0.451 0.218 0.727 0.218 0.285 0 0.528-0.079 0.727-0.236 0.203-0.158 0.333-0.373 0.391-0.645h0.963c-0.033 0.33-0.139 0.624-0.318 0.882s-0.418 0.461-0.719 0.609c-0.3 0.148-0.65 0.223-1.050 0.223zM80.266 14.118v0.795h-2.773v-0.795h2.773zM78.235 12.909h0.986v4.8c0 0.233 0.049 0.405 0.145 0.514 0.097 0.106 0.253 0.159 0.468 0.159 0.051 0 0.106-0.003 0.163-0.009 0.061-0.006 0.122-0.015 0.182-0.027l0.186 0.818c-0.1 0.033-0.209 0.059-0.328 0.077s-0.236 0.027-0.354 0.027c-0.439 0-0.791-0.123-1.054-0.368-0.264-0.248-0.396-0.579-0.396-0.991v-5z"></path>
</symbol>
<symbol id="icon-burger-open" viewBox="0 0 32 32">
<path fill="none" stroke="#fafafa" style="stroke: var(--color2, #fafafa)" stroke-linejoin="round" stroke-linecap="round" stroke-miterlimit="4" stroke-width="2.2857" d="M4 11.333h24M4 20.667h24"></path>
</symbol>
<symbol id="icon-close-btn" viewBox="0 0 32 32">
<path fill="none" stroke="#fafafa" style="stroke: var(--color2, #fafafa)" stroke-linejoin="round" stroke-linecap="round" stroke-miterlimit="4" stroke-width="2.2857" d="M24 8l-16 16"></path>
<path fill="none" stroke="#fafafa" style="stroke: var(--color2, #fafafa)" stroke-linejoin="round" stroke-linecap="round" stroke-miterlimit="4" stroke-width="2.2857" d="M8 8l16 16"></path>
</symbol>
</defs>
</svg>
